<svg width="17" height="17" viewBox="0 0 17 17" fill="none" xmlns="http://www.w3.org/2000/svg">
<path d="M15.1741 5.87579L11.2069 5.29922L9.43347 1.70391C9.38503 1.60547 9.30534 1.52579 9.20691 1.47735C8.96003 1.35547 8.66003 1.45704 8.53659 1.70391L6.76315 5.29922L2.79597 5.87579C2.68659 5.89141 2.58659 5.94297 2.51003 6.0211C2.41747 6.11623 2.36647 6.24423 2.36822 6.37695C2.36998 6.50967 2.42436 6.63626 2.5194 6.72891L5.38972 9.52735L4.71159 13.4789C4.69569 13.5708 4.70586 13.6654 4.74096 13.7518C4.77605 13.8382 4.83466 13.9131 4.91014 13.9679C4.98562 14.0228 5.07495 14.0553 5.168 14.062C5.26105 14.0686 5.3541 14.049 5.43659 14.0055L8.98503 12.1398L12.5335 14.0055C12.6303 14.057 12.7428 14.0742 12.8507 14.0555C13.1225 14.0086 13.3053 13.7508 13.2585 13.4789L12.5803 9.52735L15.4507 6.72891C15.5288 6.65235 15.5803 6.55235 15.596 6.44297C15.6382 6.16954 15.4475 5.91641 15.1741 5.87579Z" fill="#FFC700"/>
</svg>
