<svg width="16" height="16" viewBox="0 0 16 16" fill="none" xmlns="http://www.w3.org/2000/svg">
<circle cx="8" cy="8" r="8" fill="#DB3022"/>
<path d="M5.53467 11.8824V11.1544C6.27387 10.6093 6.88987 10.1314 7.38267 9.72075C7.88294 9.31009 8.28241 8.93675 8.58107 8.60075C8.87974 8.26475 9.09254 7.94742 9.21947 7.64875C9.34641 7.34262 9.40987 7.02529 9.40987 6.69675C9.40987 6.25622 9.26801 5.90155 8.98427 5.63275C8.70801 5.35649 8.32721 5.21835 7.84187 5.21835C7.33414 5.21835 6.9272 5.38635 6.62107 5.72235C6.31494 6.05089 6.13574 6.49142 6.08347 7.04395L5.29947 6.57355C5.36667 6.14049 5.5048 5.75969 5.71387 5.43115C5.9304 5.10262 6.21787 4.84502 6.57627 4.65835C6.94214 4.47169 7.3752 4.37835 7.87547 4.37835C8.25627 4.37835 8.59601 4.43435 8.89467 4.54635C9.20081 4.65835 9.46214 4.81889 9.67867 5.02795C9.89521 5.22955 10.0595 5.47222 10.1715 5.75595C10.2909 6.03969 10.3507 6.35329 10.3507 6.69675C10.3507 7.15969 10.2387 7.61515 10.0147 8.06315C9.79067 8.50369 9.42107 8.96662 8.90587 9.45195C8.39067 9.93729 7.69254 10.4749 6.81147 11.0648V11.076C6.89361 11.0685 7.00561 11.0648 7.14747 11.0648C7.2968 11.0573 7.4424 11.0536 7.58427 11.0536C7.7336 11.0461 7.8456 11.0424 7.92027 11.0424H10.5075V11.8824H5.53467Z" fill="white"/>
</svg>
