<svg width="14" height="14" viewBox="0 0 14 14" fill="none" xmlns="http://www.w3.org/2000/svg">
<path fill-rule="evenodd" clip-rule="evenodd" d="M0.985031 1.65864C0.985031 0.939309 1.56656 0.358643 2.28503 0.358643H12.685C13.4035 0.358643 13.985 0.939309 13.985 1.65864V9.45258C13.985 10.1719 13.4035 10.7526 12.685 10.7526H9.45063L7.84556 13.1576C7.80599 13.2169 7.75238 13.2656 7.68949 13.2992C7.62659 13.3329 7.55636 13.3505 7.48503 13.3505C7.4137 13.3505 7.34347 13.3329 7.28058 13.2992C7.21768 13.2656 7.16407 13.2169 7.1245 13.1576L5.5203 10.7526H2.28503C1.56656 10.7526 0.985031 10.1719 0.985031 9.45258V1.65864ZM7.0725 7.92464L10.4109 4.10958L9.75916 3.53931L7.0309 6.65758L5.62516 5.25098L5.01156 5.86458L7.0725 7.92464Z" fill="#00AEEF"/>
</svg>
